<?xml version="1.0" encoding="utf-8"?>
<!-- Generator: Adobe Illustrator 16.0.2, SVG Export Plug-In . SVG Version: 6.00 Build 0)  -->
<!DOCTYPE svg PUBLIC "-//W3C//DTD SVG 1.1//EN" "http://www.w3.org/Graphics/SVG/1.1/DTD/svg11.dtd">
<svg version="1.1" id="Layer_1" xmlns="http://www.w3.org/2000/svg" xmlns:xlink="http://www.w3.org/1999/xlink" x="0px" y="0px"
	 width="626px" height="198.583px" viewBox="0 0 626 198.583" enable-background="new 0 0 626 198.583" xml:space="preserve">
<g>
	<rect fill="none" width="782" height="200"/>
	<text transform="matrix(1 0 0 1 0 123.5962)" fill="#2784C3" font-family="'Marathon'" font-size="300">G</text>
	<g>
		<linearGradient id="SVGID_1_" gradientUnits="userSpaceOnUse" x1="148.9902" y1="146.5981" x2="594.5674" y2="146.5981">
			<stop  offset="0" style="stop-color:#009AD6"/>
			<stop  offset="1" style="stop-color:#11699C"/>
		</linearGradient>
		<path fill="url(#SVGID_1_)" d="M148.99,118.752c0,0,1.641-0.832,4.718-2.392c1.558-0.742,3.409-1.72,5.813-2.587
			c2.358-0.874,5.167-2.146,8.323-2.935c6.305-1.962,14.242-3.565,23.553-4.438c9.283-0.729,19.889-0.551,31.235,0.798
			c11.344,1.351,23.388,3.841,35.705,7.103c12.314,3.276,24.933,7.235,37.62,11.376c6.275,2.014,12.653,4.058,19.112,6.13
			c6.391,1.945,12.811,3.896,19.187,5.664c12.808,3.423,25.576,6.446,38.17,7.636c12.577,1.476,24.953,1.299,36.994-0.264
			c3.014-0.535,6.018-1.07,9.006-1.604c3.434-0.688,6.85-1.373,10.246-2.051c6.804-1.351,13.469-2.753,20.088-3.925
			c13.225-2.505,26.141-4.72,38.627-6.476c12.447-1.751,24.516-3.004,35.984-3.229c11.436-0.222,22.249,0.633,31.56,2.787
			c9.308,2.294,16.899,5.46,22.698,8.638c5.803,3.158,9.971,6.13,12.741,8.208c2.78,2.067,4.197,3.227,4.197,3.227
			s-1.8-0.368-5.177-1.056c-3.289-0.835-8.268-1.611-14.344-2.474c-6.109-0.775-13.419-1.14-21.514-0.608
			c-8.127,0.658-17.118,2.414-26.993,5.059c-9.868,2.582-20.657,6.05-32.228,9.834c-11.555,3.706-23.867,7.79-36.751,11.728
			c-6.435,2.058-13.038,3.954-19.68,5.884c-3.325,0.971-6.67,1.943-10.032,2.923c-3.733,0.934-7.734,1.842-11.634,2.712
			c-15.816,3.168-32.384,3.457-48.313,1.817c-15.961-1.801-31.195-5.625-45.377-10.429c-7.148-2.294-13.952-4.98-20.595-7.687
			c-6.624-2.707-13.046-5.452-19.21-8.323c-12.383-5.598-23.926-11.251-34.83-16.269c-10.888-5.052-21.124-9.526-30.731-13.09
			c-9.591-3.608-18.563-6.271-26.721-8.159c-8.154-1.751-15.49-2.787-21.645-3.227c-6.091-0.376-11.042-0.651-14.515-0.396
			C150.83,118.718,148.99,118.752,148.99,118.752z"/>
		<linearGradient id="SVGID_2_" gradientUnits="userSpaceOnUse" x1="69.9727" y1="143.8647" x2="246.8232" y2="143.8647">
			<stop  offset="0" style="stop-color:#0770B2"/>
			<stop  offset="1" style="stop-color:#18477E"/>
		</linearGradient>
		<path fill="url(#SVGID_2_)" d="M246.823,158.888c0,0-2.858-0.603-7.729-1.931c-2.439-0.609-5.386-1.616-8.748-2.362
			c-3.372-0.781-7.12-1.676-11.133-2.759c-4.148-0.801-8.581-1.756-13.245-2.738c-4.74-0.683-9.61-1.844-14.755-2.416
			c-2.557-0.35-5.155-0.703-7.786-1.062c-2.638-0.245-5.307-0.493-7.999-0.746l-4.042-0.394l-4.084-0.191
			c-2.729-0.123-5.459-0.354-8.2-0.396c-5.484-0.086-10.968-0.187-16.384,0.02c-5.415,0.034-10.745,0.499-15.927,0.764
			c-5.17,0.452-10.199,0.806-14.962,1.391c-4.786,0.425-9.295,1.107-13.513,1.532c-4.167,0.673-8.06,1.076-11.496,1.572
			c-3.416,0.564-6.467,0.854-8.952,1.223c-4.973,0.717-7.896,0.968-7.896,0.968s2.495-1.493,7.004-3.826
			c4.521-2.289,11.094-5.359,19.287-8.331c4.126-1.375,8.571-3.06,13.437-4.269c4.826-1.38,10.01-2.48,15.414-3.502
			c2.694-0.55,5.482-0.825,8.287-1.232c1.407-0.187,2.821-0.376,4.244-0.565c1.429-0.101,2.869-0.201,4.315-0.305
			c5.774-0.564,11.676-0.496,17.577-0.479c2.947,0.091,5.892,0.376,8.824,0.558c2.938,0.133,5.841,0.53,8.714,0.978
			c2.874,0.422,5.729,0.808,8.52,1.355c2.771,0.636,5.509,1.263,8.203,1.881c5.391,1.164,10.401,3.103,15.195,4.598
			c4.72,1.773,9.063,3.758,13.068,5.494c3.971,1.938,7.5,3.922,10.602,5.637c3.171,1.611,5.543,3.541,7.68,4.896
			C244.513,157.1,246.823,158.888,246.823,158.888z"/>
		
			<linearGradient id="SVGID_3_" gradientUnits="userSpaceOnUse" x1="226.7998" y1="104.7065" x2="579.3193" y2="104.7065" gradientTransform="matrix(0.9998 -0.0182 0.0182 0.9998 -1.9858 11.8499)">
			<stop  offset="0" style="stop-color:#9BF3FF"/>
			<stop  offset="1" style="stop-color:#4DB6E0"/>
		</linearGradient>
		<path fill="url(#SVGID_3_)" d="M579.566,130.342c0,0-44.682-47.918-98.115-46.946c-53.432,0.975-59.002,17.216-112.542,18.192
			c-53.538,0.975-69.057-22.428-142.487-3.063c62.543,4.311,98.346,34.703,154.917,35.327
			C468.874,134.814,502.582,92.655,579.566,130.342z"/>
	</g>
	<rect x="143" y="2" fill="none" width="517" height="153"/>
	<text transform="matrix(1 0 0 1 143 84.3975)"><tspan x="0" y="0" fill="#2784C3" font-family="'Marathon'" font-size="200">r</tspan><tspan x="72.498" y="0" fill="#37AAE2" font-family="'Marathon'" font-size="200">e</tspan><tspan x="115.497" y="0" fill="#44B4E0" font-family="'Marathon'" font-size="200">e</tspan><tspan x="158.496" y="0" fill="#2B88BC" font-family="'Marathon'" font-size="200">c</tspan><tspan x="218.994" y="0" fill="#2D8EC4" font-family="'Marathon'" font-size="200">e</tspan></text>
</g>
</svg>
